<?xml version="1.0" encoding="UTF-8"?>
<svg width="70.673" height="65.863" viewBox="0 0 70.672784 65.863282" xmlns="http://www.w3.org/2000/svg" xmlns:xlink="http://www.w3.org/1999/xlink">
 <defs>
  <filter id="al" x="-.06426" y="-.19277" width="1.1285" height="1.3855">
   <feGaussianBlur stdDeviation=".8925"/>
  </filter>
  <linearGradient id="a">
   <stop offset="0"/>
   <stop stop-opacity="0" offset="1"/>
  </linearGradient>
  <linearGradient id="b">
   <stop stop-color="#fff" offset="0"/>
   <stop stop-color="#fff" stop-opacity="0" offset="1"/>
  </linearGradient>
  <linearGradient id="s">
   <stop stop-color="#fff" offset="0"/>
   <stop stop-color="#ededed" offset="1"/>
  </linearGradient>
  <linearGradient id="u">
   <stop stop-opacity=".1287" offset="0"/>
   <stop stop-opacity="0" offset="1"/>
  </linearGradient>
  <linearGradient id="c">
   <stop stop-color="#fff" offset="0"/>
   <stop stop-color="#e2e2e2" offset="1"/>
  </linearGradient>
  <linearGradient id="v">
   <stop stop-color="#f9cc84" offset="0"/>
   <stop stop-color="#fed27f" offset="1"/>
  </linearGradient>
  <linearGradient id="ak" x1="288.41" x2="308.09" gradientUnits="userSpaceOnUse" spreadMethod="reflect">
   <stop stop-color="#c6c6c6" offset="0"/>
   <stop stop-color="#e3e3e3" offset=".2048"/>
   <stop stop-color="#a5a5a8" offset="1"/>
  </linearGradient>
  <linearGradient id="aj" x1="282.36" x2="286.63" y1="518.56" y2="527.34" gradientUnits="userSpaceOnUse">
   <stop stop-color="#e3e3e3" offset="0"/>
   <stop stop-color="#a5a5a8" offset="1"/>
  </linearGradient>
  <linearGradient id="af" x2="0" y1="-150.7" y2="327.66" gradientUnits="userSpaceOnUse">
   <stop stop-opacity="0" offset="0"/>
   <stop offset=".5"/>
   <stop stop-opacity="0" offset="1"/>
  </linearGradient>
  <linearGradient id="ad" x1="5.6496" x2="43.989" gradientUnits="userSpaceOnUse">
   <stop stop-color="#989690" offset="0"/>
   <stop stop-color="#656460" offset="1"/>
  </linearGradient>
  <linearGradient id="ac" x1="5.8266" x2="13.467" y1="7.2311" y2="17.877" gradientTransform="matrix(1.5706 0 0 1.191 2.8795 .34301)" gradientUnits="userSpaceOnUse">
   <stop stop-color="#ededed" offset="0"/>
   <stop stop-color="#c8c8c8" offset="1"/>
  </linearGradient>
  <linearGradient id="ab" x1="10.184" x2="15.311" y1="15.148" y2="29.569" gradientTransform="matrix(1.8193 0 0 1.0282 2.8795 .34301)" gradientUnits="userSpaceOnUse">
   <stop stop-color="#fff" offset="0"/>
   <stop stop-color="#dcdcdc" offset="1"/>
  </linearGradient>
  <linearGradient id="t" x1="8.9156" x2="9.8855" y1="37.197" y2="52.091" gradientTransform="matrix(2.4548 0 0 .762 2.8795 .34301)" gradientUnits="userSpaceOnUse">
   <stop stop-color="#9aa29a" offset="0"/>
   <stop stop-color="#b5beb5" offset="1"/>
  </linearGradient>
  <linearGradient id="r" x1="32" x2="27.857" y1="16.238" y2="47.922" gradientUnits="userSpaceOnUse">
   <stop stop-color="#f3ac39" stop-opacity=".6288" offset="0"/>
   <stop stop-color="#fcba94" stop-opacity=".7826" offset="1"/>
  </linearGradient>
  <linearGradient id="n" x1="9.1643" x2="9.8855" y1="38.071" y2="52.091" gradientTransform="matrix(2.4548 0 0 .762 2.8818 .33739)" gradientUnits="userSpaceOnUse">
   <stop stop-color="#dfe0df" offset="0"/>
   <stop stop-color="#a6b0a6" offset=".2381"/>
   <stop stop-color="#b5beb5" offset="1"/>
  </linearGradient>
  <linearGradient id="ai" x1="308.5" x2="327.78" y1="522.86" y2="520.58" gradientUnits="userSpaceOnUse" xlink:href="#b" spreadMethod="reflect"/>
  <linearGradient id="ah" x1="308.5" x2="327.78" y1="534.61" y2="532.33" gradientUnits="userSpaceOnUse" xlink:href="#b" spreadMethod="reflect"/>
  <linearGradient id="ag" x1="308.5" x2="327.78" y1="544.61" y2="542.33" gradientUnits="userSpaceOnUse" xlink:href="#b" spreadMethod="reflect"/>
  <linearGradient id="ae" x1="11.573" x2="18.475" y1="4.7462" y2="26.023" gradientTransform="matrix(1.3435 0 0 1.4178 2.8795 .3146)" gradientUnits="userSpaceOnUse" xlink:href="#c"/>
  <linearGradient id="aa" x1="17.831" x2="31.374" y1="19.619" y2="34.701" gradientUnits="userSpaceOnUse" xlink:href="#s"/>
  <linearGradient id="z" x1="8.7804" x2="9.7619" y1="37.785" y2="32.203" gradientTransform="matrix(2.3949 0 0 .78106 2.8795 .34301)" gradientUnits="userSpaceOnUse" xlink:href="#u"/>
  <linearGradient id="q" x1="31.973" x2="27.83" y1="16.238" y2="47.922" gradientUnits="userSpaceOnUse" xlink:href="#v"/>
  <linearGradient id="p" x1="36.32" x2="30.31" y1="48" y2="16.276" gradientUnits="userSpaceOnUse" xlink:href="#v"/>
  <linearGradient id="o" x1="11.573" x2="18.475" y1="4.7462" y2="26.023" gradientTransform="matrix(1.3435 0 0 1.5058 2.8795 -2.266)" gradientUnits="userSpaceOnUse" xlink:href="#c"/>
  <linearGradient id="m" x1="11.742" x2="13.847" y1="11.485" y2="11.982" gradientTransform="matrix(1.296 0 0 -1.4369 3.7466 33.205)" gradientUnits="userSpaceOnUse" xlink:href="#c"/>
  <linearGradient id="l" x1="10.027" x2="17.178" y1="20.22" y2="-7.5275" gradientTransform="matrix(1.5706 0 0 -1.2315 2.9734 33.335)" gradientUnits="userSpaceOnUse" xlink:href="#c"/>
  <linearGradient id="k" x1="11.842" x2="40.024" y1="4.2507" y2="7.4121" gradientTransform="matrix(1.3709 0 0 -1.4646 2.5251 33.713)" gradientUnits="userSpaceOnUse" xlink:href="#s"/>
  <linearGradient id="j" x1="17.397" x2="22.178" y1="33.357" y2="31.027" gradientUnits="userSpaceOnUse" xlink:href="#b"/>
  <linearGradient id="i" x1="20.662" x2="22.627" y1="35.818" y2="36.218" gradientTransform="matrix(.62717 .11581 -.11581 .62717 255.68 30.64)" gradientUnits="userSpaceOnUse" xlink:href="#a"/>
  <radialGradient id="w" cx="55" cy="125" r="14.375" gradientUnits="userSpaceOnUse">
   <stop stop-color="#fff" offset="0"/>
   <stop stop-color="#fff520" stop-opacity=".8911" offset=".5"/>
   <stop stop-color="#fff300" stop-opacity="0" offset="1"/>
  </radialGradient>
  <radialGradient id="h" cx="-18.3" cy=".4053" r="17.1" gradientTransform="matrix(-.1316 1.117 -1.0576 -.12462 33.357 39.585)" gradientUnits="userSpaceOnUse">
   <stop stop-color="#f0d81f" offset="0"/>
   <stop stop-color="#f08b0a" offset="1"/>
  </radialGradient>
  <radialGradient id="d" cx="29.345" cy="17.064" r="7.2197" gradientUnits="userSpaceOnUse">
   <stop stop-color="#e9b15e" offset="0"/>
   <stop stop-color="#966416" offset="1"/>
  </radialGradient>
  <radialGradient id="y" cx="605.71" cy="486.65" r="117.14" gradientTransform="matrix(2.7744 0 0 1.9697 -1891.6 -872.89)" gradientUnits="userSpaceOnUse" xlink:href="#a"/>
  <radialGradient id="x" cx="605.71" cy="486.65" r="117.14" gradientTransform="matrix(-2.7744 0 0 1.9697 112.76 -872.89)" gradientUnits="userSpaceOnUse" xlink:href="#a"/>
  <radialGradient id="g" cx="6.7027" cy="73.616" r="7.2284" gradientTransform="scale(1.9022,.5257)" gradientUnits="userSpaceOnUse" xlink:href="#a"/>
  <radialGradient id="f" cx="27.741" cy="38.712" r="17.978" gradientTransform="matrix(.62993 .45937 -.14768 .24851 16.517 9.0537)" gradientUnits="userSpaceOnUse" xlink:href="#u"/>
  <radialGradient id="e" cx="31.113" cy="19.009" r="8.6621" gradientUnits="userSpaceOnUse" xlink:href="#a"/>
 </defs>
 <g transform="matrix(.52527 0 0 .52527 -127.63 -268.25)">
  <path transform="matrix(1.1818 0 0 1.1818 -30.649 -65.984)" d="m303.3 521.78c0 3.0684-7.4623 5.5558-16.668 5.5558s-16.668-2.4874-16.668-5.5558 7.4623-5.5558 16.668-5.5558 16.668 2.4874 16.668 5.5558z" fill="#2e3436" filter="url(#al)"/>
  <path d="m288.40625,517.5v30.09191h.125c-.0806.24126-.125.47032-.125.71875 0,3.6263 8.80861,6.5625 19.6875,6.5625s19.6875-2.9362 19.6875-6.5625c0-.24879-.0442-.47715-.125-.71875h.125v-30.09191h-39.375z" fill="url(#ak)"/>
  <path transform="matrix(1.1818 0 0 1.1818 -30.649 -99.394)" d="m303.3 521.78c0 3.0684-7.4623 5.5558-16.668 5.5558s-16.668-2.4874-16.668-5.5558 7.4623-5.5558 16.668-5.5558 16.668 2.4874 16.668 5.5558z" fill="url(#aj)"/>
  <path d="m288.38 539.09c0.14735 3.584 8.9318 6.4688 19.719 6.4688 10.756 0 19.492-2.8677 19.688-6.4375-3.4515 2.9359-10.959 4.9688-19.688 4.9688-8.7461 0-16.277-2.0544-19.719-5z" fill="#565656"/>
  <path d="m288.38 517.34c0.14735 3.584 8.9318 6.4688 19.719 6.4688 10.756 0 19.492-2.8677 19.688-6.4375-0.21572 0.18349-0.44078 0.35509-0.6875 0.53125l-0.0312 0.0312c-2.2921 2.7774-9.9035 4.8125-18.969 4.8125-9.122 0-16.786-2.0707-19.031-4.875l-0.0625-0.0625c-0.21872-0.15969-0.43159-0.30323-0.625-0.46875z" fill="url(#ai)"/>
  <g transform="translate(0,-.52315)">
   <path d="m288.38 529.09c0.14735 3.584 8.9318 6.4688 19.719 6.4688 10.756 0 19.492-2.8677 19.688-6.4375-3.4515 2.9359-10.959 4.9688-19.688 4.9688-8.7461 0-16.277-2.0544-19.719-5z" fill="#565656"/>
   <path d="m288.38 529.09c0.14735 3.584 8.9318 6.4688 19.719 6.4688 10.756 0 19.492-2.8677 19.688-6.4375l-0.15625 0.125c-1.2422 3.2268-9.5106 5.7188-19.531 5.7188-10.113 0-18.468-2.5112-19.594-5.7812l-0.125-0.0937z" fill="url(#ah)"/>
  </g>
  <path d="m288.38 539.09c0.14735 3.584 8.9318 6.4688 19.719 6.4688 10.756 0 19.492-2.8677 19.688-6.4375l-0.15625 0.125c-1.2422 3.2268-9.5106 5.7188-19.531 5.7188-10.113 0-18.468-2.5112-19.594-5.7812l-0.125-0.0937z" fill="url(#ag)"/>
  <path d="m288.5 549.94c1.126 3.27 9.481 5.7812 19.594 5.7812 10.021 0 18.289-2.492 19.531-5.7188-3.5163 2.8678-10.929 4.8438-19.531 4.8438-8.6478 0-16.1-2.0137-19.594-4.9062z" fill="#565656"/>
 </g>
 <g transform="matrix(.33394 0 0 .33394 32.04 11.905)">
  <g transform="matrix(.02313 0 0 .01486 45.321 39.614)">
   <path d="m-1559.3-150.7h1339.6v478.36h-1339.6z" fill="url(#af)" opacity=".4021"/>
   <path d="m-219.62-150.68v478.33c142.87 0.90045 345.4-107.17 345.4-239.2s-159.44-239.13-345.4-239.13z" fill="url(#y)" opacity=".4021"/>
   <path d="m-1559.3-150.68v478.33c-142.87 0.90045-345.4-107.17-345.4-239.2s159.44-239.13 345.4-239.13z" fill="url(#x)" opacity=".4021"/>
  </g>
  <path d="m6.3334 16.972v24.51h36.972l-0.06106-24.392c-0.00344-1.3776-11.848-14.678-14.034-14.678h-8.5515c-2.2973 0-14.326 13.262-14.326 14.56z" fill="url(#ae)" fill-rule="evenodd" stroke="url(#ad)" stroke-linejoin="round" stroke-width=".8566"/>
  <path d="m6.9231 16.787c-0.39804-0.43013 11.887-13.694 13.744-13.694h8.3758c1.7475 0 14.037 13.128 13.427 13.885l-10.861 13.496-12.313-0.3183-12.372-13.37z" fill="url(#ac)" fill-rule="evenodd"/>
  <path d="m19.078 30.018-7.333-8.746 24.818-6.9361 3.0293 6.2164-7.4163 9.4403" fill-opacity=".1462" fill-rule="evenodd"/>
  <path d="m18.292 29.836-7.4826-8.8101 24.647-6.8933 3.1741 6.271-7.2405 9.4072" fill-opacity=".1462" fill-rule="evenodd"/>
  <path d="m18.775 29.957-7.6749-8.6605 24.968-7.0643 3.2857 6.5924-7.4804 9.1071" fill-opacity=".1462" fill-rule="evenodd"/>
  <path d="m18.594 30.441-7.333-8.746 24.712-6.8933 3.1108 6.3874-7.1202 8.9859" fill="url(#ab)" fill-rule="evenodd"/>
  <path d="m20.488 29.064-13.396 10.972 13.909-9.6043h9.0182l12.419 9.4822-11.863-10.85h-10.087z" fill="url(#t)" fill-rule="evenodd"/>
  <path d="m6.9635 16.885 11.516 14.316 1.0685-0.8548-12.585-13.461z" fill="url(#t)" fill-rule="evenodd"/>
  <path d="m7.3077 17.131 0.03115 23.211h34.945l-0.06231-23.085c-0.00202-0.7491-11.216-13.798-13.384-13.798h-7.8956c-2.2523 0-13.635 12.892-13.634 13.672z" fill="none" stroke="url(#aa)" stroke-width=".8566"/>
  <path d="m20.957 30.453-11.942 8.2709 2.2194 0.0061 9.9981-6.8689 8.8219-1.4228-9.098 0.01482z" fill="#fff" fill-rule="evenodd"/>
  <path d="m11.428 21.67 1.3249 1.4104 22.791-6.8842 2.9151 5.6824 0.61405-0.71191-3.0694-6.3778-24.576 6.8812z" fill="#fff" fill-rule="evenodd"/>
  <path d="m13.308 23.636 6.0264 6.4538 1.1967-1.0258 10.087 0.04274 0.81206 0.72658 3.9748-4.7442c-1.154-1.4104-22.097-1.4532-22.097-1.4532z" fill="url(#z)" fill-rule="evenodd"/>
  <path d="m41.813 17.848-9.9516 12.631-1.0685-0.8548 11.02-11.776z" fill="#b1b1b1" fill-rule="evenodd"/>
  <path transform="matrix(.78329 0 0 .78329 -6.3409 -86.652)" d="m69.375 125c0 7.9391-6.4359 14.375-14.375 14.375s-14.375-6.4359-14.375-14.375 6.4359-14.375 14.375-14.375 14.375 6.4359 14.375 14.375z" display="block" fill="url(#w)"/>
 </g>
 <g transform="matrix(.21412 0 0 .21412 26.327 11.625)">
  <g transform="matrix(.70831 .7059 -.7059 .70831 -27.147 74.179)">
   <path d="m22,14c-1,0-1,1-1,1v17c-1,.0488-5,0-5,0-.44725.0091-.84641.10907-1.01605.523s-.0774.88906.2348,1.20945l16,16c.43543.4218 1.12707.4218 1.5625,0l16-16c.3122-.32038.40444-.79552.2348-1.20945s-.5688-.51387-1.01605-.523h-5v-17.0488c0,0 0-1-1-1-6,0-14,.0488-20,.0488z" fill="#a54005"/>
   <path d="m41.781 15.156c-5.903 0.0013-13.643 0.06118-19.562 0.0625v16.781c1e-3 0.64949-0.50761 1.1856-1.1562 1.2188-1.094 0.05339-4.0576 0.0078-4.625 0l15.562 15.562 15.531-15.562h-4.5312c-0.67317 1.7e-4 -1.2189-0.54558-1.2188-1.2188v-16.844z" fill="url(#h)"/>
   <path d="m41 17c-0.90625-1.0312-17-1-18 0s0.12155 14.11 0.09375 15c-0.09375 3-4.0938 1-3.0938 3 2 3 11 12 12 12s10-9 12-12c1-2-3 0-3.0938-3-0.02923-0.93544 1.1875-14.031 0.09375-15z" fill="url(#r)"/>
   <path d="m19.973 35c2 3 11 12 12 12s7.0265-5.4591 9.0265-8.5022c-0.97347 0-4 3.5022-9 3.5022-4 0-9-9-12.027-7z" fill="url(#q)"/>
   <path d="m32.035 16.276c-4.2617 0.0039-8.5312 0.25-9.0312 0.75-0.69815 0.69815-0.3999 6.176-0.15625 10.188 0.15267 2.7863 0.15267 2.7863 1.1527-0.21374 3.4928-10.479 16.082-8.3158 17.41-7.9425-0.06258-1.0077-0.17517-1.8266-0.40625-2.0312-0.45313-0.51563-4.707-0.75391-8.9688-0.75z" fill="url(#p)"/>
  </g>
  <g transform="translate(5.1407 85.361)">
   <path d="m22,14c-1,0-1,1-1,1v17c-1,.0488-5,0-5,0-.44725.0091-.84641.10907-1.01605.523s-.0774.88906.2348,1.20945l16,16c.43543.4218 1.12707.4218 1.5625,0l16-16c.3122-.32038.40444-.79552.2348-1.20945s-.5688-.51387-1.01605-.523h-5v-17.0488c0,0 0-1-1-1-6,0-14,.0488-20,.0488z" fill="#a54005"/>
   <path d="m41.781 15.156c-5.903 0.0013-13.643 0.06118-19.562 0.0625v16.781c1e-3 0.64949-0.50761 1.1856-1.1562 1.2188-1.094 0.05339-4.0576 0.0078-4.625 0l15.562 15.562 15.531-15.562h-4.5312c-0.67317 1.7e-4 -1.2189-0.54558-1.2188-1.2188v-16.844z" fill="url(#h)"/>
   <path d="m41 17c-0.90625-1.0312-17-1-18 0s0.12155 14.11 0.09375 15c-0.09375 3-4.0938 1-3.0938 3 2 3 11 12 12 12s10-9 12-12c1-2-3 0-3.0938-3-0.02923-0.93544 1.1875-14.031 0.09375-15z" fill="url(#r)"/>
   <path d="m19.973 35c2 3 11 12 12 12s7.0265-5.4591 9.0265-8.5022c-0.97347 0-4 3.5022-9 3.5022-4 0-9-9-12.027-7z" fill="url(#q)"/>
   <path d="m32.035 16.276c-4.2617 0.0039-8.5312 0.25-9.0312 0.75-0.69815 0.69815-0.3999 6.176-0.15625 10.188 0.15267 2.7863 0.15267 2.7863 1.1527-0.21374 3.4928-10.479 16.082-8.3158 17.41-7.9425-0.06258-1.0077-0.17517-1.8266-0.40625-2.0312-0.45313-0.51563-4.707-0.75391-8.9688-0.75z" fill="url(#p)"/>
  </g>
  <g transform="matrix(.7033 -.71089 .71089 .7033 54.739 119.68)">
   <path d="m22,14c-1,0-1,1-1,1v17c-1,.0488-5,0-5,0-.44725.0091-.84641.10907-1.01605.523s-.0774.88906.2348,1.20945l16,16c.43543.4218 1.12707.4218 1.5625,0l16-16c.3122-.32038.40444-.79552.2348-1.20945s-.5688-.51387-1.01605-.523h-5v-17.0488c0,0 0-1-1-1-6,0-14,.0488-20,.0488z" fill="#a54005"/>
   <path d="m41.781 15.156c-5.903 0.0013-13.643 0.06118-19.562 0.0625v16.781c1e-3 0.64949-0.50761 1.1856-1.1562 1.2188-1.094 0.05339-4.0576 0.0078-4.625 0l15.562 15.562 15.531-15.562h-4.5312c-0.67317 1.7e-4 -1.2189-0.54558-1.2188-1.2188v-16.844z" fill="url(#h)"/>
   <path d="m41 17c-0.90625-1.0312-17-1-18 0s0.12155 14.11 0.09375 15c-0.09375 3-4.0938 1-3.0938 3 2 3 11 12 12 12s10-9 12-12c1-2-3 0-3.0938-3-0.02923-0.93544 1.1875-14.031 0.09375-15z" fill="url(#r)"/>
   <path d="m19.973 35c2 3 11 12 12 12s7.0265-5.4591 9.0265-8.5022c-0.97347 0-4 3.5022-9 3.5022-4 0-9-9-12.027-7z" fill="url(#q)"/>
   <path d="m32.035 16.276c-4.2617 0.0039-8.5312 0.25-9.0312 0.75-0.69815 0.69815-0.3999 6.176-0.15625 10.188 0.15267 2.7863 0.15267 2.7863 1.1527-0.21374 3.4928-10.479 16.082-8.3158 17.41-7.9425-0.06258-1.0077-0.17517-1.8266-0.40625-2.0312-0.45313-0.51563-4.707-0.75391-8.9688-0.75z" fill="url(#p)"/>
  </g>
  <path transform="matrix(3.2793 0 0 3.1337 -119.68 120.13)" d="m26.5 38.7c0 2.0987-6.1561 3.8-13.75 3.8s-13.75-1.7013-13.75-3.8 6.1561-3.8 13.75-3.8 13.75 1.7013 13.75 3.8z" fill="url(#g)" opacity=".3"/>
  <g transform="matrix(2.0632 0 0 2.0658 -133.66 148.41)">
   <path d="m6.34375,15.45488v25.98728h36.96875l-.0625-25.88771c-1.3e-005-.0057.00037-.02709 0-.03319s.0011-.02633 0-.03319-.02946-.02558-.03125-.03319h-36.875z" fill="url(#o)" fill-rule="evenodd" stroke="#888a85" stroke-linejoin="round" stroke-width=".99466"/>
   <path d="m20.491 29.059-13.396 10.972 13.909-9.6043h9.0182l12.419 9.4822-11.863-10.85h-10.087z" fill="url(#n)" fill-rule="evenodd"/>
   <path d="m7.34375,16.73386c-.0067.01334.00539.01964 0,.03159-.00237.0056-.02921.02632-.03125.03159-.0017.0049.00137.02704 0,.03159s.00069.02777 0,.03159l.03125,23.47342h34.9375l-.0625-23.34705c-.00069-.0037.001-.02751 0-.03159-.01466-.04808-.04183-.13216-.09375-.22115h-34.78125z" fill="none" stroke="#fff" stroke-width=".99466"/>
   <path d="m23.329 32.997c-2.3921-0.44635-15.429-14.226-16.733-16.625l-0.05192-0.10842h34.513c-0.27708 2.5028-7.5242 16.506-9.5613 16.733h-8.0501c-0.03363 0-0.07755 0.0074-0.11709 0z" fill="url(#f)" fill-rule="evenodd"/>
   <path d="m20.775 31.085c-2.3674-0.39114-12.829-12.466-13.656-14.568-0.00926-0.02504-0.02391-0.0731-0.03015-0.09501h35.542c-0.82362 2.1932-11.298 14.464-13.445 14.663h-8.2902c-0.03463 0-0.08145 0.0065-0.12058 0z" fill="url(#m)" fill-rule="evenodd" stroke="#989898" stroke-linejoin="round" stroke-width=".85203"/>
   <path d="m20.62517,30.49048c-2.10596-.49055-12.90269-12.50277-13.59375-14.0241-.00254-.006.00218-.02669 0-.03231-.00545-.01576-.0291-.0523-.03125-.06463 2.87e-005-.0033-.00041-.02938 0-.03231h.03125l.09375-.09694h35.46875c-.0027.02433-.02268.06687-.03125.09694-.0075.0236-.02057.07023-.03125.09694-.9221,2.18094-11.50799,13.76645-13.34375,14.05642h-.0625-8.375c-.03029-.0017-.08975.0082-.125,0z" fill="url(#l)" fill-rule="evenodd"/>
   <path d="m20.875 30.051c-2.448-0.54947-12.171-11.617-13.344-13.599h34.594c-1.4902 2.3332-11.047 13.412-13.156 13.599h-8.0938z" fill="none" stroke="url(#k)" stroke-width=".85203"/>
   <path d="m20.96 30.447-11.942 8.2709 2.2194 0.0061 9.9981-6.8689 8.8219-1.4228-9.098 0.01482z" fill="url(#j)" fill-rule="evenodd"/>
  </g>
  <g transform="translate(-315.89 182.77)">
   <path d="m268.39 58.996h6.7646c1.9166 0 3.8142-0.70278 4.5097-2.7058 0.66049-1.9021 0.11274-5.5244-4.1715-8.4557h-8.0047c-4.2842 2.7058-4.8196 6.4063-3.8332 8.5684 1.0049 2.2027 2.7058 2.5931 4.7352 2.5931z" fill="#d4aa00" fill-rule="evenodd" stroke="#404604" stroke-linecap="round" stroke-linejoin="round"/>
   <path d="m271.62 49.525s-1.372 1.0589-1.2538 2.3346c-1.3018-1.1485-1.3392-3.3493-1.3392-3.3493l2.5931 1.0147z" fill="#9db029" fill-rule="evenodd"/>
   <path d="m268.46 58.319h6.5825c1.6843 0 3.3518-0.61759 3.963-2.3778 0.58043-1.6716-0.0604-4.8548-3.8253-7.4307h-7.3534c-3.7648 2.3778-4.3948 5.6297-3.5281 7.5298 0.88305 1.9357 2.3778 2.2788 4.1612 2.2788z" fill="none" opacity=".2152" stroke="#fff" stroke-linecap="round" stroke-linejoin="round"/>
   <path d="m272.75 49.025s1.372 1.0589 1.2538 2.3346c1.3018-1.1485 1.3392-3.3493 1.3392-3.3493l-2.5931 1.0147z" fill="#9db029" fill-rule="evenodd"/>
   <path transform="matrix(.63777 0 0 .63777 251.74 34.674)" d="m39.775 19.009c0 4.7839-3.8781 8.6621-8.6621 8.6621s-8.6621-3.8781-8.6621-8.6621 3.8781-8.6621 8.6621-8.6621 8.6621 3.8781 8.6621 8.6621z" fill="url(#e)" fill-rule="evenodd"/>
   <path transform="matrix(.63777 0 0 .63777 251.82 32.441)" d="m39.775 19.009c0 4.7839-3.8781 8.6621-8.6621 8.6621s-8.6621-3.8781-8.6621-8.6621 3.8781-8.6621 8.6621-8.6621 8.6621 3.8781 8.6621 8.6621z" fill="url(#d)" fill-rule="evenodd" stroke="#6f4709" stroke-linecap="round" stroke-linejoin="round" stroke-width="1.568"/>
   <path transform="matrix(.53293 0 0 .53293 255.08 34.434)" d="m39.775 19.009c0 4.7839-3.8781 8.6621-8.6621 8.6621s-8.6621-3.8781-8.6621-8.6621 3.8781-8.6621 8.6621-8.6621 8.6621 3.8781 8.6621 8.6621z" fill="none" opacity=".1266" stroke="#fff" stroke-linecap="round" stroke-linejoin="round" stroke-width="1.8764"/>
   <path d="m265.64 58.336c-0.79569-0.34757-1.1518-1.1852-1.1518-1.1852 0.53654-2.5952 2.3724-4.4939 2.3724-4.4939s-1.4537 4.0891-1.2206 5.679z" fill="url(#i)" fill-rule="evenodd" opacity=".2278"/>
  </g>
  <path transform="matrix(3.2793 0 0 3.1337 120.21 120.13)" d="m26.5 38.7c0 2.0987-6.1561 3.8-13.75 3.8s-13.75-1.7013-13.75-3.8 6.1561-3.8 13.75-3.8 13.75 1.7013 13.75 3.8z" fill="url(#g)" opacity=".3"/>
  <g transform="matrix(2.0632 0 0 2.0658 106.23 148.41)">
   <path d="m6.34375,15.45488v25.98728h36.96875l-.0625-25.88771c-1.3e-005-.0057.00037-.02709 0-.03319s.0011-.02633 0-.03319-.02946-.02558-.03125-.03319h-36.875z" fill="url(#o)" fill-rule="evenodd" stroke="#888a85" stroke-linejoin="round" stroke-width=".99466"/>
   <path d="m20.491 29.059-13.396 10.972 13.909-9.6043h9.0182l12.419 9.4822-11.863-10.85h-10.087z" fill="url(#n)" fill-rule="evenodd"/>
   <path d="m7.34375,16.73386c-.0067.01334.00539.01964 0,.03159-.00237.0056-.02921.02632-.03125.03159-.0017.0049.00137.02704 0,.03159s.00069.02777 0,.03159l.03125,23.47342h34.9375l-.0625-23.34705c-.00069-.0037.001-.02751 0-.03159-.01466-.04808-.04183-.13216-.09375-.22115h-34.78125z" fill="none" stroke="#fff" stroke-width=".99466"/>
   <path d="m23.329 32.997c-2.3921-0.44635-15.429-14.226-16.733-16.625l-0.05192-0.10842h34.513c-0.27708 2.5028-7.5242 16.506-9.5613 16.733h-8.0501c-0.03363 0-0.07755 0.0074-0.11709 0z" fill="url(#f)" fill-rule="evenodd"/>
   <path d="m20.775 31.085c-2.3674-0.39114-12.829-12.466-13.656-14.568-0.00926-0.02504-0.02391-0.0731-0.03015-0.09501h35.542c-0.82362 2.1932-11.298 14.464-13.445 14.663h-8.2902c-0.03463 0-0.08145 0.0065-0.12058 0z" fill="url(#m)" fill-rule="evenodd" stroke="#989898" stroke-linejoin="round" stroke-width=".85203"/>
   <path d="m20.62517,30.49048c-2.10596-.49055-12.90269-12.50277-13.59375-14.0241-.00254-.006.00218-.02669 0-.03231-.00545-.01576-.0291-.0523-.03125-.06463 2.87e-005-.0033-.00041-.02938 0-.03231h.03125l.09375-.09694h35.46875c-.0027.02433-.02268.06687-.03125.09694-.0075.0236-.02057.07023-.03125.09694-.9221,2.18094-11.50799,13.76645-13.34375,14.05642h-.0625-8.375c-.03029-.0017-.08975.0082-.125,0z" fill="url(#l)" fill-rule="evenodd"/>
   <path d="m20.875 30.051c-2.448-0.54947-12.171-11.617-13.344-13.599h34.594c-1.4902 2.3332-11.047 13.412-13.156 13.599h-8.0938z" fill="none" stroke="url(#k)" stroke-width=".85203"/>
   <path d="m20.96 30.447-11.942 8.2709 2.2194 0.0061 9.9981-6.8689 8.8219-1.4228-9.098 0.01482z" fill="url(#j)" fill-rule="evenodd"/>
  </g>
  <path transform="matrix(3.2793 0 0 3.1337 -.72148 120.13)" d="m26.5 38.7c0 2.0987-6.1561 3.8-13.75 3.8s-13.75-1.7013-13.75-3.8 6.1561-3.8 13.75-3.8 13.75 1.7013 13.75 3.8z" fill="url(#g)" opacity=".3"/>
  <g transform="matrix(2.0632 0 0 2.0658 -14.701 148.41)">
   <path d="m6.34375,15.45488v25.98728h36.96875l-.0625-25.88771c-1.3e-005-.0057.00037-.02709 0-.03319s.0011-.02633 0-.03319-.02946-.02558-.03125-.03319h-36.875z" fill="url(#o)" fill-rule="evenodd" stroke="#888a85" stroke-linejoin="round" stroke-width=".99466"/>
   <path d="m20.491 29.059-13.396 10.972 13.909-9.6043h9.0182l12.419 9.4822-11.863-10.85h-10.087z" fill="url(#n)" fill-rule="evenodd"/>
   <path d="m7.34375,16.73386c-.0067.01334.00539.01964 0,.03159-.00237.0056-.02921.02632-.03125.03159-.0017.0049.00137.02704 0,.03159s.00069.02777 0,.03159l.03125,23.47342h34.9375l-.0625-23.34705c-.00069-.0037.001-.02751 0-.03159-.01466-.04808-.04183-.13216-.09375-.22115h-34.78125z" fill="none" stroke="#fff" stroke-width=".99466"/>
   <path d="m23.329 32.997c-2.3921-0.44635-15.429-14.226-16.733-16.625l-0.05192-0.10842h34.513c-0.27708 2.5028-7.5242 16.506-9.5613 16.733h-8.0501c-0.03363 0-0.07755 0.0074-0.11709 0z" fill="url(#f)" fill-rule="evenodd"/>
   <path d="m20.775 31.085c-2.3674-0.39114-12.829-12.466-13.656-14.568-0.00926-0.02504-0.02391-0.0731-0.03015-0.09501h35.542c-0.82362 2.1932-11.298 14.464-13.445 14.663h-8.2902c-0.03463 0-0.08145 0.0065-0.12058 0z" fill="url(#m)" fill-rule="evenodd" stroke="#989898" stroke-linejoin="round" stroke-width=".85203"/>
   <path d="m20.62517,30.49048c-2.10596-.49055-12.90269-12.50277-13.59375-14.0241-.00254-.006.00218-.02669 0-.03231-.00545-.01576-.0291-.0523-.03125-.06463 2.87e-005-.0033-.00041-.02938 0-.03231h.03125l.09375-.09694h35.46875c-.0027.02433-.02268.06687-.03125.09694-.0075.0236-.02057.07023-.03125.09694-.9221,2.18094-11.50799,13.76645-13.34375,14.05642h-.0625-8.375c-.03029-.0017-.08975.0082-.125,0z" fill="url(#l)" fill-rule="evenodd"/>
   <path d="m20.875 30.051c-2.448-0.54947-12.171-11.617-13.344-13.599h34.594c-1.4902 2.3332-11.047 13.412-13.156 13.599h-8.0938z" fill="none" stroke="url(#k)" stroke-width=".85203"/>
   <path d="m20.96 30.447-11.942 8.2709 2.2194 0.0061 9.9981-6.8689 8.8219-1.4228-9.098 0.01482z" fill="url(#j)" fill-rule="evenodd"/>
  </g>
  <g transform="translate(-197.11 182.77)">
   <path d="m268.39 58.996h6.7646c1.9166 0 3.8142-0.70278 4.5097-2.7058 0.66049-1.9021 0.11274-5.5244-4.1715-8.4557h-8.0047c-4.2842 2.7058-4.8196 6.4063-3.8332 8.5684 1.0049 2.2027 2.7058 2.5931 4.7352 2.5931z" fill="#d4aa00" fill-rule="evenodd" stroke="#404604" stroke-linecap="round" stroke-linejoin="round"/>
   <path d="m271.62 49.525s-1.372 1.0589-1.2538 2.3346c-1.3018-1.1485-1.3392-3.3493-1.3392-3.3493l2.5931 1.0147z" fill="#9db029" fill-rule="evenodd"/>
   <path d="m268.46 58.319h6.5825c1.6843 0 3.3518-0.61759 3.963-2.3778 0.58043-1.6716-0.0604-4.8548-3.8253-7.4307h-7.3534c-3.7648 2.3778-4.3948 5.6297-3.5281 7.5298 0.88305 1.9357 2.3778 2.2788 4.1612 2.2788z" fill="none" opacity=".2152" stroke="#fff" stroke-linecap="round" stroke-linejoin="round"/>
   <path d="m272.75 49.025s1.372 1.0589 1.2538 2.3346c1.3018-1.1485 1.3392-3.3493 1.3392-3.3493l-2.5931 1.0147z" fill="#9db029" fill-rule="evenodd"/>
   <path transform="matrix(.63777 0 0 .63777 251.74 34.674)" d="m39.775 19.009c0 4.7839-3.8781 8.6621-8.6621 8.6621s-8.6621-3.8781-8.6621-8.6621 3.8781-8.6621 8.6621-8.6621 8.6621 3.8781 8.6621 8.6621z" fill="url(#e)" fill-rule="evenodd"/>
   <path transform="matrix(.63777 0 0 .63777 251.82 32.441)" d="m39.775 19.009c0 4.7839-3.8781 8.6621-8.6621 8.6621s-8.6621-3.8781-8.6621-8.6621 3.8781-8.6621 8.6621-8.6621 8.6621 3.8781 8.6621 8.6621z" fill="url(#d)" fill-rule="evenodd" stroke="#6f4709" stroke-linecap="round" stroke-linejoin="round" stroke-width="1.568"/>
   <path transform="matrix(.53293 0 0 .53293 255.08 34.434)" d="m39.775 19.009c0 4.7839-3.8781 8.6621-8.6621 8.6621s-8.6621-3.8781-8.6621-8.6621 3.8781-8.6621 8.6621-8.6621 8.6621 3.8781 8.6621 8.6621z" fill="none" opacity=".1266" stroke="#fff" stroke-linecap="round" stroke-linejoin="round" stroke-width="1.8764"/>
   <path d="m265.64 58.336c-0.79569-0.34757-1.1518-1.1852-1.1518-1.1852 0.53654-2.5952 2.3724-4.4939 2.3724-4.4939s-1.4537 4.0891-1.2206 5.679z" fill="url(#i)" fill-rule="evenodd" opacity=".2278"/>
  </g>
  <g transform="translate(-74.373 182.77)">
   <path d="m268.39 58.996h6.7646c1.9166 0 3.8142-0.70278 4.5097-2.7058 0.66049-1.9021 0.11274-5.5244-4.1715-8.4557h-8.0047c-4.2842 2.7058-4.8196 6.4063-3.8332 8.5684 1.0049 2.2027 2.7058 2.5931 4.7352 2.5931z" fill="#d4aa00" fill-rule="evenodd" stroke="#404604" stroke-linecap="round" stroke-linejoin="round"/>
   <path d="m271.62 49.525s-1.372 1.0589-1.2538 2.3346c-1.3018-1.1485-1.3392-3.3493-1.3392-3.3493l2.5931 1.0147z" fill="#9db029" fill-rule="evenodd"/>
   <path d="m268.46 58.319h6.5825c1.6843 0 3.3518-0.61759 3.963-2.3778 0.58043-1.6716-0.0604-4.8548-3.8253-7.4307h-7.3534c-3.7648 2.3778-4.3948 5.6297-3.5281 7.5298 0.88305 1.9357 2.3778 2.2788 4.1612 2.2788z" fill="none" opacity=".2152" stroke="#fff" stroke-linecap="round" stroke-linejoin="round"/>
   <path d="m272.75 49.025s1.372 1.0589 1.2538 2.3346c1.3018-1.1485 1.3392-3.3493 1.3392-3.3493l-2.5931 1.0147z" fill="#9db029" fill-rule="evenodd"/>
   <path transform="matrix(.63777 0 0 .63777 251.74 34.674)" d="m39.775 19.009c0 4.7839-3.8781 8.6621-8.6621 8.6621s-8.6621-3.8781-8.6621-8.6621 3.8781-8.6621 8.6621-8.6621 8.6621 3.8781 8.6621 8.6621z" fill="url(#e)" fill-rule="evenodd"/>
   <path transform="matrix(.63777 0 0 .63777 251.82 32.441)" d="m39.775 19.009c0 4.7839-3.8781 8.6621-8.6621 8.6621s-8.6621-3.8781-8.6621-8.6621 3.8781-8.6621 8.6621-8.6621 8.6621 3.8781 8.6621 8.6621z" fill="url(#d)" fill-rule="evenodd" stroke="#6f4709" stroke-linecap="round" stroke-linejoin="round" stroke-width="1.568"/>
   <path transform="matrix(.53293 0 0 .53293 255.08 34.434)" d="m39.775 19.009c0 4.7839-3.8781 8.6621-8.6621 8.6621s-8.6621-3.8781-8.6621-8.6621 3.8781-8.6621 8.6621-8.6621 8.6621 3.8781 8.6621 8.6621z" fill="none" opacity=".1266" stroke="#fff" stroke-linecap="round" stroke-linejoin="round" stroke-width="1.8764"/>
   <path d="m265.64 58.336c-0.79569-0.34757-1.1518-1.1852-1.1518-1.1852 0.53654-2.5952 2.3724-4.4939 2.3724-4.4939s-1.4537 4.0891-1.2206 5.679z" fill="url(#i)" fill-rule="evenodd" opacity=".2278"/>
  </g>
 </g>
</svg>
