<?xml version="1.0" encoding="UTF-8"?>
<svg viewBox="0 0 1000 1000" xmlns="http://www.w3.org/2000/svg" xmlns:xlink="http://www.w3.org/1999/xlink">
 <defs>
  <linearGradient id="d">
   <stop stop-color="#fff" stop-opacity="0" offset="0"/>
   <stop stop-color="#fff" stop-opacity="0" offset=".92161"/>
   <stop stop-color="#fff" stop-opacity=".96111" offset="1"/>
  </linearGradient>
  <linearGradient id="c">
   <stop stop-color="#212121" offset="0"/>
   <stop stop-color="#e4e4e4" offset="1"/>
  </linearGradient>
  <linearGradient id="b">
   <stop stop-color="#d7d7d7" offset="0"/>
   <stop stop-color="#3a3a3a" offset="1"/>
  </linearGradient>
  <linearGradient id="a">
   <stop stop-color="#e9e9e9" offset="0"/>
   <stop stop-color="#868686" offset=".5"/>
   <stop stop-color="#d6d6d6" offset=".75"/>
   <stop stop-color="#767676" offset="1"/>
  </linearGradient>
  <linearGradient id="e">
   <stop stop-color="#fff" offset="0"/>
   <stop stop-color="#fff" stop-opacity="0" offset="1"/>
  </linearGradient>
  <linearGradient id="f">
   <stop stop-color="#909090" offset="0"/>
   <stop offset="1"/>
  </linearGradient>
  <linearGradient id="ah" x1="802.64" x2="1051.9" y1="756.57" y2="280.11" gradientUnits="userSpaceOnUse">
   <stop offset="0"/>
   <stop stop-color="#9b9595" offset="1"/>
  </linearGradient>
  <linearGradient id="ag" x1="1760.5" x2="1795.2" y1="362.96" y2="435.88" gradientUnits="userSpaceOnUse" spreadMethod="reflect">
   <stop stop-color="#50605d" offset="0"/>
   <stop stop-color="#94a19f" offset="1"/>
  </linearGradient>
  <linearGradient id="af" x1="1803" x2="1788.9" y1="777.94" y2="746.16" gradientTransform="matrix(.85581 -.32011 .3273 .837 -651.21 669.88)" gradientUnits="userSpaceOnUse" spreadMethod="reflect">
   <stop stop-color="#2c2c2e" offset="0"/>
   <stop stop-color="#c1c1c8" offset="1"/>
  </linearGradient>
  <linearGradient id="ae" x1="872.19" x2="998.91" y1="278.44" y2="771.76" gradientUnits="userSpaceOnUse">
   <stop stop-color="#fff" stop-opacity=".66111" offset="0"/>
   <stop stop-color="#979797" stop-opacity=".23333" offset="1"/>
  </linearGradient>
  <linearGradient id="y" x1="378.99" x2="385.72" y1="79.991" y2="121.26" gradientUnits="userSpaceOnUse">
   <stop offset="0"/>
   <stop stop-color="#a7a7a7" offset="1"/>
  </linearGradient>
  <linearGradient id="u" x2="0" y1="830.9" y2="554.71" gradientUnits="userSpaceOnUse" spreadMethod="reflect">
   <stop stop-color="#bebebe" offset="0"/>
   <stop stop-color="#838383" offset="1"/>
  </linearGradient>
  <linearGradient id="ad" x1="231.12" x2="329.04" y1="511.74" y2="513.7" gradientUnits="userSpaceOnUse" xlink:href="#e"/>
  <linearGradient id="ac" x1="728.53" x2="733.71" y1="883.34" y2="890.67" gradientUnits="userSpaceOnUse" xlink:href="#c"/>
  <linearGradient id="ab" x1="432.77" x2="592.15" y1="893.82" y2="888.36" gradientUnits="userSpaceOnUse" xlink:href="#c" spreadMethod="reflect"/>
  <linearGradient id="aa" x1="369.98" x2="388.21" y1="856.65" y2="877.63" gradientUnits="userSpaceOnUse" xlink:href="#f" spreadMethod="reflect"/>
  <linearGradient id="z" x1="404.38" x2="342.98" y1="503.04" y2="502.44" gradientUnits="userSpaceOnUse" xlink:href="#b"/>
  <linearGradient id="x" x1="268.63" x2="269.81" y1="177.02" y2="182.75" gradientUnits="userSpaceOnUse" xlink:href="#a" spreadMethod="reflect"/>
  <linearGradient id="w" x1="475.66" x2="684.02" y1="253.63" y2="276.55" gradientUnits="userSpaceOnUse" xlink:href="#a" spreadMethod="reflect"/>
  <linearGradient id="v" x1="700.65" x2="686.38" y1="398.63" y2="336.69" gradientUnits="userSpaceOnUse" xlink:href="#a" spreadMethod="reflect"/>
  <linearGradient id="t" x1="699.38" x2="702.66" y1="1262.4" y2="1220.4" gradientUnits="userSpaceOnUse" xlink:href="#c" spreadMethod="reflect"/>
  <linearGradient id="s" x1="311.48" x2="346.32" y1="468.7" y2="468.98" gradientTransform="matrix(.77943 .42918 0 .88978 -76.44 -140.17)" gradientUnits="userSpaceOnUse" xlink:href="#f" spreadMethod="reflect"/>
  <linearGradient id="r" x1="133.24" x2="806.19" gradientUnits="userSpaceOnUse" xlink:href="#a"/>
  <linearGradient id="q" x1="720.79" x2="227.28" y1="797.48" y2="81.399" gradientUnits="userSpaceOnUse" xlink:href="#b"/>
  <linearGradient id="p" x1="706.21" x2="239.74" y1="778.02" y2="101.19" gradientUnits="userSpaceOnUse" xlink:href="#b"/>
  <linearGradient id="o" x1="789.5" x2="753.93" y1="197.67" y2="193.3" gradientUnits="userSpaceOnUse" xlink:href="#b"/>
  <radialGradient id="n" cx="772.01" cy="598.1" r="219.37" gradientUnits="userSpaceOnUse">
   <stop stop-color="#abbbf1" offset="0"/>
   <stop stop-color="#7e99f1" stop-opacity="0" offset="1"/>
  </radialGradient>
  <radialGradient id="m" cx="1055.8" cy="398.98" r="219.37" gradientUnits="userSpaceOnUse">
   <stop stop-color="#b8c7f7" stop-opacity=".55556" offset="0"/>
   <stop stop-color="#3e67ee" stop-opacity="0" offset="1"/>
  </radialGradient>
  <radialGradient id="g" cx="279.6" cy="663.9" r="232.39" gradientTransform="matrix(.30875 .0062175 -.041793 2.0754 86.017 -995.8)" gradientUnits="userSpaceOnUse" spreadMethod="reflect">
   <stop stop-color="#fff" offset="0"/>
   <stop stop-color="#878787" stop-opacity="0" offset="1"/>
  </radialGradient>
  <radialGradient id="l" cx="951.66" cy="507.65" r="145.83" gradientTransform="matrix(1.0001 -.0052302 .0048928 .9337 -2.5465 38.634)" gradientUnits="userSpaceOnUse">
   <stop stop-color="#fdfeff" stop-opacity=".58824" offset="0"/>
   <stop stop-color="#fff" stop-opacity="0" offset="1"/>
  </radialGradient>
  <radialGradient id="k" cx="981.21" cy="537.2" r="107.49" gradientTransform="matrix(1 0 0 .94152 0 31.415)" gradientUnits="userSpaceOnUse" xlink:href="#e"/>
  <radialGradient id="j" cx="1477.9" cy="404.59" r="90.662" gradientTransform="matrix(-1.6026 -2.387 1.9598 -1.3158 3050.1 4456.2)" gradientUnits="userSpaceOnUse" xlink:href="#d"/>
  <radialGradient id="i" cx="1464" cy="623.35" r="174.15" gradientTransform="matrix(1.2566 -.53237 .51242 1.2096 -700.01 446.21)" gradientUnits="userSpaceOnUse" xlink:href="#d"/>
  <radialGradient id="h" cx="317.56" cy="663.51" r="232.39" gradientTransform="matrix(.97727 -.02417 .051323 2.0752 -138.28 -988.28)" gradientUnits="userSpaceOnUse" xlink:href="#a" spreadMethod="reflect"/>
 </defs>
 <g transform="translate(-43.421 1.3158)">
  <path d="m226 81.558c-20.249-1.7162-36.542 13.467-36.542 34.026v608.85c0 20.558 16.292 38.48 36.542 40.196l455.87 38.637c20.249 1.7163 36.542-13.444 36.542-34.002v-301.86l0.64509-311.68c3.4588-22.807-2.1067-31.095-28.084-34.25l-464.98-39.917z" fill="#9b9b9b" fill-opacity=".42718"/>
  <path d="m172.23 16.852c-21.961 0.39139-38.984 17.686-38.984 40.596v697.03c0 24.438 19.362 45.73 43.432 47.77l541.9 45.935c24.071 2.0402 43.432-15.992 43.432-40.429v-332.11l0.75076 0.05561c24.07 2.0401 43.432-15.992 43.432-40.429v-321.35c2e-5 -24.438-19.362-45.786-43.432-47.826l-117.59-9.9544c-2.3143-0.19615-4.57-0.19061-6.7846-0.02781l-461.71-39.123c-1.5044-0.12751-2.9848-0.16512-4.4489-0.13903zm47.214 65.983c1.2317-0.02195 2.4882 0.03177 3.7538 0.13903l464.97 39.901c25.978 3.1552 31.542 11.449 28.084 34.257l-0.63953 311.67v301.86c2e-5 20.558-16.287 35.723-36.537 34.006l-455.87-38.65c-20.249-1.7162-36.537-19.621-36.537-40.179v-608.86c0-19.273 14.308-33.816 32.783-34.145z" fill="url(#r)"/>
  <path d="m212.74 60.631c-21.424-1.8158-38.661 14.248-38.661 35.999v644.16c0 21.751 17.237 40.712 38.661 42.527l482.31 40.878c21.424 1.8159 38.661-14.223 38.661-35.974v-319.36l0.68251-329.76c3.6593-24.13-2.2289-32.898-29.713-36.237l-491.94-42.232z" fill="none" stroke="url(#q)" stroke-linecap="round" stroke-linejoin="round" stroke-width="4.7069"/>
  <path d="m226 81.558c-20.249-1.7162-36.542 13.467-36.542 34.026v608.85c0 20.558 16.292 38.48 36.542 40.196l455.87 38.637c20.249 1.7163 36.542-13.444 36.542-34.002v-301.86l0.64509-311.68c3.4588-22.807-2.1067-31.095-28.084-34.25l-464.98-39.917z" fill="none" stroke="url(#p)" stroke-linecap="round" stroke-linejoin="round" stroke-width="4.4489"/>
  <path transform="matrix(.98983,.14227,0,1,0,0)" d="m777.99-19.135a21.961 21.961 0 0 1 21.961 21.961v328.09a21.961 21.961 0 0 1 -21.961 21.961 21.961 21.961 0 0 1 -21.961 -21.961v-328.09a21.961 21.961 0 0 1 21.961 -21.961" fill="#dedede" stroke="url(#o)" stroke-linecap="round" stroke-linejoin="round" stroke-width="4.4489"/>
 </g>
 <g transform="matrix(.96388 0 0 .96388 -691.65 -50.054)">
  <path transform="matrix(.86807 -.32469 .3327 .85079 490.11 254.47)" d="m1131.4 517.71a219.37 228.8 0 1 1 -438.75 0 219.37 228.8 0 1 1 438.75 0z" fill="#3e67ee" fill-opacity=".32804"/>
  <path transform="matrix(.88565 -.33127 .32077 .8203 466.38 278.77)" d="m1151.5 524a222.52 241.37 0 1 1 -445.03 0 222.52 241.37 0 1 1 445.03 0z" fill="none" stroke="url(#ah)" stroke-linecap="round" stroke-linejoin="round" stroke-width="19.432"/>
  <path transform="matrix(.86807 -.32469 .3327 .85079 491.45 253.16)" d="m1131.4 517.71a219.37 228.8 0 1 1 -438.75 0 219.37 228.8 0 1 1 438.75 0z" fill="url(#n)"/>
  <path transform="matrix(.86807 -.32469 .3327 .85079 496.77 261.33)" d="m1131.4 517.71a219.37 228.8 0 1 1 -438.75 0 219.37 228.8 0 1 1 438.75 0z" fill="url(#m)"/>
  <path d="m1350.6 560.15c187.47 79.002 295.26-56.471 307.98-174.3-6.5324 188.54-193.84 268.41-307.98 174.3z" fill="#807f7b" fill-opacity=".22751" fill-rule="evenodd"/>
  <path transform="matrix(.85581 -.32011 .3273 .837 464.3 242.05)" d="m1097.5 507.65a145.83 134.51 0 1 1 -291.66 0 145.83 134.51 0 1 1 291.66 0z" fill="url(#l)"/>
  <path transform="matrix(.85581 -.32011 .3273 .837 508.78 223.93)" d="m1088.7 537.2a107.49 101.2 0 1 1 -214.97 0 107.49 101.2 0 1 1 214.97 0z" fill="url(#k)"/>
  <g transform="matrix(.85581 -.32011 .3273 .837 -396.87 780.99)" fill-rule="evenodd">
   <g fill="url(#ag)">
    <path d="m1810.3 331.65c-1.4059 67.936 30.445 124.79 79.2 176l-13.685 4.7925c-48.755-51.215-80.606-108.07-79.2-176l13.685-4.7925z"/>
    <path d="m1889.5 507.65c-77.252-17.611-123.39-92.627-79.2-176l-13.685 4.7925c-44.192 83.374 1.948 158.39 79.2 176l13.685-4.7925z"/>
   </g>
   <path d="m1810.3 331.65c-1.4059 67.936 30.445 124.79 79.2 176-77.252-17.611-123.39-92.627-79.2-176z" fill="#50605d"/>
  </g>
  <path d="m1266.3 559.1 11.487 4.1462 36.489 33.391 2.8802 7.3656-336.26 341.67c-24.687-6.848-51.938-34.447-57.693-59.232l343.1-327.34z" fill="url(#af)" fill-rule="evenodd"/>
  <path d="m1258.5 381.44c-0.209 120.62 66.104 191.09 181.32 224.68-80.337-56.019-151.4-120.83-181.32-224.68z" fill="url(#j)" fill-rule="evenodd"/>
  <path d="m1265.4 343.56c85.724-181.19 258.44-150.63 348.31-71.179-133.51-136.16-327.51-73.407-348.31 71.179z" fill="url(#i)" fill-rule="evenodd"/>
  <path transform="matrix(.90952 -.34019 .32942 .84241 439.68 275.48)" d="m1151.5 524a222.52 241.37 0 1 1 -445.03 0 222.52 241.37 0 1 1 445.03 0z" fill="none" stroke="url(#ae)" stroke-linecap="round" stroke-linejoin="round" stroke-width="3.2876"/>
 </g>
 <g transform="translate(-43.421 1.3158)">
  <path d="m247.42 87.575 256.93 128.9c12.074 6.0575 21.794 21.809 21.794 35.317v678.54c0 13.508-9.72 19.506-21.794 13.449l-256.93-128.9c-12.074-6.0574-21.794-21.809-21.794-35.317v-678.54c0-13.508 9.72-19.506 21.794-13.449z" fill-opacity=".41784" stroke="#000" stroke-linecap="round" stroke-linejoin="round" stroke-width=".83019"/>
  <path d="m253.33 83.638 91.298 46.087c-74.97 259.2-62.372 474.99-13.689 717.72l-77.609-36.505c-12.074-6.0574-21.794-21.809-21.794-35.317v-678.54c0-13.508 9.72-19.506 21.794-13.449z" fill="url(#ad)"/>
  <g transform="matrix(.7953 .39901 0 .88978 -63.436 -141.43)" fill-opacity=".35437">
   <path d="m398.68 73.231h323.07l-16.282 11.614h-323.07l16.282-11.614z"/>
   <path d="m721.74 73.231c15.181 0 27.403 12.222 27.403 27.403l-16.282 11.614c0-15.181-12.222-27.403-27.403-27.403l16.282-11.614z"/>
   <path d="m749.15 100.63v762.59l-16.282 11.614v-762.59l16.282-11.614z"/>
   <path d="m749.15 863.22c0 9.2304-4.5181 17.367-11.472 22.327l-16.282 11.614c6.9543-4.9605 11.472-13.097 11.472-22.327l16.282-11.614z"/>
   <path d="m737.67 885.55c-4.4836 3.1981-9.9799 5.0761-15.931 5.0761l-16.282 11.614c5.951 0 11.447-1.878 15.931-5.0761l16.282-11.614z" fill="url(#ac)"/>
   <path d="m721.74 890.63h-323.07l-16.282 11.614h323.07l16.282-11.614z" fill="url(#ab)"/>
   <path d="m398.68 890.63c-15.181 0-27.403-12.222-27.403-27.403l-16.282 11.614c0 15.181 12.222 27.403 27.403 27.403l16.282-11.614z" fill="url(#aa)"/>
   <path d="m371.27 863.22v-762.59l-16.282 11.614v762.59l16.282-11.614z" fill="url(#z)"/>
   <path d="m371.27 100.63c0-9.2304 4.518-17.367 11.472-22.327l-16.282 11.614c-6.9543 4.9604-11.472 13.097-11.472 22.327l16.282-11.614z" fill="url(#y)"/>
   <path d="m382.75 78.307c4.4836-3.1981 9.9799-5.0761 15.931-5.0761l-16.282 11.614c-5.951 0-11.447 1.878-15.931 5.0761l16.282-11.614z"/>
  </g>
  <g transform="matrix(.88978 0 0 .88978 -74.661 -140.01)" fill-opacity=".35437">
   <path d="m684.02 1255.9-397.02-191.07-19.696 3.473 397.02 191.07 19.696-3.473z"/>
   <path d="m287 1064.8c-18.489-8.8978-33.373-32.58-33.373-53.098l-19.696 3.473c0 20.518 14.885 44.2 33.373 53.098l19.696-3.473z"/>
   <path d="m253.62 1011.7v-811.43l-19.696 3.473v811.43l19.696-3.473z"/>
   <path d="m253.62 200.25c0-13.6 6.5392-22.296 16.333-24.023l-19.696 3.473c-9.7937 1.7269-16.333 10.423-16.333 24.023l19.696-3.473z"/>
   <path d="m269.96 176.23c4.9821-0.87848 10.806 0.04646 17.041 3.0466l-19.696 3.473c-6.2341-3.0002-12.058-3.9251-17.041-3.0466l19.696-3.473z" fill="url(#x)"/>
   <path d="m287 179.28 397.02 191.07-19.696 3.473-397.02-191.07 19.696-3.473z" fill="url(#w)"/>
   <path d="m684.02 370.34c18.489 8.8978 33.373 32.579 33.373 53.098l-19.696 3.473c0-20.519-14.885-44.2-33.373-53.098l19.696-3.473z" fill="url(#v)"/>
   <path d="m717.39 423.44v811.43l-19.696 3.473v-811.43l19.696-3.473z" fill="url(#u)"/>
   <path d="m701.06 1258.9c-4.9821 0.8785-10.806-0.0464-17.041-3.0466l-19.696 3.473c6.2341 3.0001 12.058 3.9251 17.041 3.0466l19.696-3.473z"/>
   <path d="m717.39 1234.9c0 13.6-6.5392 22.296-16.333 24.023l-19.696 3.473c9.7937-1.7269 16.333-10.423 16.333-24.023l19.696-3.473z" fill="url(#t)"/>
  </g>
  <path d="m151.87 20.237c-10.665-0.14303-18.129 7.9679-18.129 21.661v721.97c0 18.257 13.245 39.353 29.696 47.27l353.27 170c16.451 7.9171 29.696-0.42843 29.696-18.685v-721.97c0-18.257-13.245-39.353-29.696-47.27l-353.27-170c-4.1128-1.9793-8.0121-2.9275-11.567-2.9752zm79.302 64.064c2.8595-0.10245 6.0582 0.63201 9.4539 2.3357l256.92 128.91c12.074 6.0575 21.8 21.805 21.8 35.313v678.54c2e-5 13.508-9.7258 19.515-21.8 13.458l-256.92-128.91c-12.074-6.0574-21.8-21.805-21.8-35.313v-678.54c1e-5 -9.709 5.0381-15.532 12.346-15.794z" fill="url(#h)" stroke="#636363" stroke-linecap="round" stroke-linejoin="round" stroke-width=".88978"/>
  <path d="m163.44 811.14c-16.451-7.9171-29.696-29.013-29.696-47.27v-721.97c0-13.693 7.4641-21.804 18.129-21.661 3.555 0.04767 7.4544 0.99593 11.567 2.9752v787.93z" fill="url(#g)"/>
  <path d="m158.28 49.813c6.4594 6.9854 13.932 13.363 28.318 15.592 4.6492-0.15062 6.4989 6.8105 6.4738 10.955v698.33c0 4.0942-2.8873 5.8005-6.4738 3.8257l-28.318-15.592c-3.5865-1.9748-6.4738-6.8607-6.4738-10.955v-698.33c0-4.0942 2.8873-5.8005 6.4738-3.8257z" fill="url(#s)" stroke="#000" stroke-linecap="round" stroke-linejoin="round" stroke-width=".88978"/>
  <path d="m201.59 83.104v702.11" fill="none" stroke="#000" stroke-linecap="round" stroke-width="4.4489"/>
  <path d="m205.9 84.515v702.11" fill="none" stroke="#fff" stroke-linecap="round" stroke-width="4.4489"/>
  <path d="m157.63 49.597c7.3493 7.5006 15.838 14.341 31.028 15.966l-31.028-15.966z" fill="#bebebe" fill-rule="evenodd"/>
 </g>
</svg>
